<mxfile host="Electron" agent="Mozilla/5.0 (Windows NT 10.0; Win64; x64) AppleWebKit/537.36 (KHTML, like Gecko) draw.io/24.7.8 Chrome/128.0.6613.36 Electron/32.0.1 Safari/537.36" version="24.7.8">
  <diagram name="Page-1" id="dDOWZaF9JimwoZ-SzYvd">
    <mxGraphModel dx="1292" dy="1162" grid="1" gridSize="10" guides="1" tooltips="1" connect="1" arrows="1" fold="1" page="1" pageScale="1" pageWidth="850" pageHeight="1100" math="0" shadow="0">
      <root>
        <mxCell id="0" />
        <mxCell id="1" parent="0" />
        <mxCell id="JEuaY9wRED9hBMcnVH85-1" value="" style="ellipse;whiteSpace=wrap;html=1;aspect=fixed;" vertex="1" parent="1">
          <mxGeometry x="20" y="240" width="40" height="40" as="geometry" />
        </mxCell>
        <mxCell id="JEuaY9wRED9hBMcnVH85-2" value="" style="ellipse;whiteSpace=wrap;html=1;aspect=fixed;fillColor=#f8cecc;strokeColor=#b85450;" vertex="1" parent="1">
          <mxGeometry x="150" y="240" width="40" height="40" as="geometry" />
        </mxCell>
        <mxCell id="JEuaY9wRED9hBMcnVH85-6" value="" style="ellipse;whiteSpace=wrap;html=1;aspect=fixed;" vertex="1" parent="1">
          <mxGeometry x="510" y="190" width="40" height="40" as="geometry" />
        </mxCell>
        <mxCell id="JEuaY9wRED9hBMcnVH85-7" value="" style="ellipse;whiteSpace=wrap;html=1;aspect=fixed;" vertex="1" parent="1">
          <mxGeometry x="460" y="243.5" width="40" height="40" as="geometry" />
        </mxCell>
        <mxCell id="JEuaY9wRED9hBMcnVH85-8" value="" style="ellipse;whiteSpace=wrap;html=1;aspect=fixed;" vertex="1" parent="1">
          <mxGeometry x="550" y="260" width="40" height="40" as="geometry" />
        </mxCell>
        <mxCell id="JEuaY9wRED9hBMcnVH85-11" value="" style="endArrow=classic;html=1;rounded=0;entryX=0;entryY=0.5;entryDx=0;entryDy=0;exitX=1;exitY=0.5;exitDx=0;exitDy=0;" edge="1" parent="1" source="JEuaY9wRED9hBMcnVH85-1" target="JEuaY9wRED9hBMcnVH85-2">
          <mxGeometry width="50" height="50" relative="1" as="geometry">
            <mxPoint x="140" y="260" as="sourcePoint" />
            <mxPoint x="190" y="210" as="targetPoint" />
          </mxGeometry>
        </mxCell>
        <mxCell id="JEuaY9wRED9hBMcnVH85-12" value="" style="ellipse;whiteSpace=wrap;html=1;aspect=fixed;" vertex="1" parent="1">
          <mxGeometry x="280" y="240" width="40" height="40" as="geometry" />
        </mxCell>
        <mxCell id="JEuaY9wRED9hBMcnVH85-15" value="" style="endArrow=classic;html=1;rounded=0;entryX=0;entryY=0.5;entryDx=0;entryDy=0;" edge="1" parent="1" target="JEuaY9wRED9hBMcnVH85-12">
          <mxGeometry width="50" height="50" relative="1" as="geometry">
            <mxPoint x="190" y="260" as="sourcePoint" />
            <mxPoint x="240" y="210" as="targetPoint" />
          </mxGeometry>
        </mxCell>
        <mxCell id="JEuaY9wRED9hBMcnVH85-16" value="" style="endArrow=classic;html=1;rounded=0;" edge="1" parent="1" target="JEuaY9wRED9hBMcnVH85-7">
          <mxGeometry width="50" height="50" relative="1" as="geometry">
            <mxPoint x="530" y="230" as="sourcePoint" />
            <mxPoint x="580" y="180" as="targetPoint" />
          </mxGeometry>
        </mxCell>
        <mxCell id="JEuaY9wRED9hBMcnVH85-17" value="" style="endArrow=classic;html=1;rounded=0;entryX=0;entryY=0;entryDx=0;entryDy=0;" edge="1" parent="1" target="JEuaY9wRED9hBMcnVH85-8">
          <mxGeometry width="50" height="50" relative="1" as="geometry">
            <mxPoint x="530" y="230" as="sourcePoint" />
            <mxPoint x="590" y="190" as="targetPoint" />
          </mxGeometry>
        </mxCell>
        <mxCell id="JEuaY9wRED9hBMcnVH85-18" value="" style="ellipse;whiteSpace=wrap;html=1;aspect=fixed;" vertex="1" parent="1">
          <mxGeometry x="405" y="300" width="40" height="40" as="geometry" />
        </mxCell>
        <mxCell id="JEuaY9wRED9hBMcnVH85-19" value="" style="ellipse;whiteSpace=wrap;html=1;aspect=fixed;" vertex="1" parent="1">
          <mxGeometry x="360" y="370" width="40" height="40" as="geometry" />
        </mxCell>
        <mxCell id="JEuaY9wRED9hBMcnVH85-20" value="" style="ellipse;whiteSpace=wrap;html=1;aspect=fixed;" vertex="1" parent="1">
          <mxGeometry x="450" y="380" width="40" height="40" as="geometry" />
        </mxCell>
        <mxCell id="JEuaY9wRED9hBMcnVH85-21" value="" style="endArrow=classic;html=1;rounded=0;exitX=0.5;exitY=1;exitDx=0;exitDy=0;" edge="1" parent="1" target="JEuaY9wRED9hBMcnVH85-19" source="JEuaY9wRED9hBMcnVH85-18">
          <mxGeometry width="50" height="50" relative="1" as="geometry">
            <mxPoint x="450" y="330" as="sourcePoint" />
            <mxPoint x="500" y="280" as="targetPoint" />
          </mxGeometry>
        </mxCell>
        <mxCell id="JEuaY9wRED9hBMcnVH85-22" value="" style="endArrow=classic;html=1;rounded=0;entryX=0;entryY=0;entryDx=0;entryDy=0;exitX=0.5;exitY=1;exitDx=0;exitDy=0;" edge="1" parent="1" target="JEuaY9wRED9hBMcnVH85-20" source="JEuaY9wRED9hBMcnVH85-18">
          <mxGeometry width="50" height="50" relative="1" as="geometry">
            <mxPoint x="450" y="330" as="sourcePoint" />
            <mxPoint x="510" y="290" as="targetPoint" />
          </mxGeometry>
        </mxCell>
        <mxCell id="JEuaY9wRED9hBMcnVH85-23" value="" style="endArrow=classic;html=1;rounded=0;entryX=1;entryY=0;entryDx=0;entryDy=0;exitX=0;exitY=0.75;exitDx=0;exitDy=0;exitPerimeter=0;" edge="1" parent="1" source="JEuaY9wRED9hBMcnVH85-7" target="JEuaY9wRED9hBMcnVH85-18">
          <mxGeometry width="50" height="50" relative="1" as="geometry">
            <mxPoint x="480" y="270" as="sourcePoint" />
            <mxPoint x="530" y="220" as="targetPoint" />
          </mxGeometry>
        </mxCell>
        <mxCell id="JEuaY9wRED9hBMcnVH85-30" value="" style="ellipse;whiteSpace=wrap;html=1;aspect=fixed;fillColor=#f8cecc;strokeColor=#b85450;" vertex="1" parent="1">
          <mxGeometry x="580" y="323.5" width="40" height="40" as="geometry" />
        </mxCell>
        <mxCell id="JEuaY9wRED9hBMcnVH85-31" value="" style="ellipse;whiteSpace=wrap;html=1;aspect=fixed;" vertex="1" parent="1">
          <mxGeometry x="510" y="380" width="40" height="40" as="geometry" />
        </mxCell>
        <mxCell id="JEuaY9wRED9hBMcnVH85-32" value="" style="ellipse;whiteSpace=wrap;html=1;aspect=fixed;" vertex="1" parent="1">
          <mxGeometry x="650" y="410" width="40" height="40" as="geometry" />
        </mxCell>
        <mxCell id="JEuaY9wRED9hBMcnVH85-33" value="" style="endArrow=classic;html=1;rounded=0;exitX=0;exitY=1;exitDx=0;exitDy=0;" edge="1" parent="1" target="JEuaY9wRED9hBMcnVH85-31" source="JEuaY9wRED9hBMcnVH85-30">
          <mxGeometry width="50" height="50" relative="1" as="geometry">
            <mxPoint x="600" y="333" as="sourcePoint" />
            <mxPoint x="650" y="283" as="targetPoint" />
          </mxGeometry>
        </mxCell>
        <mxCell id="JEuaY9wRED9hBMcnVH85-34" value="" style="endArrow=classic;html=1;rounded=0;entryX=0;entryY=0;entryDx=0;entryDy=0;exitX=1;exitY=1;exitDx=0;exitDy=0;" edge="1" parent="1" target="JEuaY9wRED9hBMcnVH85-32" source="JEuaY9wRED9hBMcnVH85-30">
          <mxGeometry width="50" height="50" relative="1" as="geometry">
            <mxPoint x="600" y="333" as="sourcePoint" />
            <mxPoint x="660" y="293" as="targetPoint" />
          </mxGeometry>
        </mxCell>
        <mxCell id="JEuaY9wRED9hBMcnVH85-35" value="" style="endArrow=classic;html=1;rounded=0;entryX=0.292;entryY=-0.004;entryDx=0;entryDy=0;exitX=0.708;exitY=0.925;exitDx=0;exitDy=0;exitPerimeter=0;entryPerimeter=0;" edge="1" parent="1" target="JEuaY9wRED9hBMcnVH85-30" source="JEuaY9wRED9hBMcnVH85-8">
          <mxGeometry width="50" height="50" relative="1" as="geometry">
            <mxPoint x="629" y="280" as="sourcePoint" />
            <mxPoint x="680" y="223" as="targetPoint" />
          </mxGeometry>
        </mxCell>
        <mxCell id="JEuaY9wRED9hBMcnVH85-38" value="&lt;div&gt;atomic logic&lt;/div&gt;&lt;div&gt;-------------------------&lt;/div&gt;if(auxiliary_data ==1)&lt;div&gt;&amp;nbsp; logic 1&lt;/div&gt;&lt;div&gt;sum +=&lt;span style=&quot;background-color: initial;&quot;&gt;auxiliary_data;&lt;/span&gt;&lt;/div&gt;&lt;div&gt;&lt;span style=&quot;background-color: initial;&quot;&gt;....&lt;/span&gt;&lt;/div&gt;&lt;div&gt;&lt;br&gt;&lt;/div&gt;" style="rounded=1;whiteSpace=wrap;html=1;verticalAlign=top;align=left;" vertex="1" parent="1">
          <mxGeometry x="110" y="290" width="120" height="107" as="geometry" />
        </mxCell>
        <mxCell id="JEuaY9wRED9hBMcnVH85-40" value="" style="shape=flexArrow;endArrow=classic;html=1;rounded=0;" edge="1" parent="1">
          <mxGeometry width="50" height="50" relative="1" as="geometry">
            <mxPoint x="230" y="340" as="sourcePoint" />
            <mxPoint x="310" y="340" as="targetPoint" />
          </mxGeometry>
        </mxCell>
        <mxCell id="JEuaY9wRED9hBMcnVH85-41" value="" style="shape=flexArrow;endArrow=classic;html=1;rounded=0;" edge="1" parent="1">
          <mxGeometry width="50" height="50" relative="1" as="geometry">
            <mxPoint x="30" y="340" as="sourcePoint" />
            <mxPoint x="110" y="340" as="targetPoint" />
          </mxGeometry>
        </mxCell>
        <mxCell id="JEuaY9wRED9hBMcnVH85-42" value="&lt;div&gt;atomic logic&lt;/div&gt;&lt;div&gt;-------------------------&lt;/div&gt;if(auxiliary_data ==1)&lt;div&gt;&amp;nbsp; logic 1&lt;/div&gt;&lt;div&gt;sum +=&lt;span style=&quot;background-color: initial;&quot;&gt;auxiliary_data;&lt;/span&gt;&lt;/div&gt;&lt;div&gt;&lt;span style=&quot;background-color: initial;&quot;&gt;....&lt;/span&gt;&lt;/div&gt;&lt;div&gt;&lt;br&gt;&lt;/div&gt;" style="rounded=1;whiteSpace=wrap;html=1;verticalAlign=top;align=left;" vertex="1" parent="1">
          <mxGeometry x="640" y="266.5" width="120" height="107" as="geometry" />
        </mxCell>
        <mxCell id="JEuaY9wRED9hBMcnVH85-43" value="" style="shape=flexArrow;endArrow=classic;startArrow=classic;html=1;rounded=0;" edge="1" parent="1">
          <mxGeometry width="100" height="100" relative="1" as="geometry">
            <mxPoint x="780" y="460" as="sourcePoint" />
            <mxPoint x="710" y="390" as="targetPoint" />
          </mxGeometry>
        </mxCell>
        <mxCell id="JEuaY9wRED9hBMcnVH85-44" value="" style="shape=flexArrow;endArrow=classic;startArrow=classic;html=1;rounded=0;" edge="1" parent="1">
          <mxGeometry width="100" height="100" relative="1" as="geometry">
            <mxPoint x="650" y="260" as="sourcePoint" />
            <mxPoint x="580" y="190" as="targetPoint" />
          </mxGeometry>
        </mxCell>
        <mxCell id="JEuaY9wRED9hBMcnVH85-45" value="&lt;div&gt;&lt;b&gt;&lt;font style=&quot;font-size: 14px;&quot;&gt;Use iterator to apply atomic logic to each atomic problem(node)&lt;/font&gt;&lt;/b&gt;&lt;/div&gt;for(i = 0;i++;..&amp;nbsp;&lt;div&gt;&lt;br&gt;&lt;/div&gt;" style="shape=note;size=15;align=left;spacingLeft=10;html=1;whiteSpace=wrap;" vertex="1" parent="1">
          <mxGeometry x="20" y="140" width="370" height="60" as="geometry" />
        </mxCell>
        <mxCell id="JEuaY9wRED9hBMcnVH85-46" value="" style="edgeStyle=none;endArrow=none;exitX=0.5;exitY=1;dashed=1;html=1;rounded=0;entryX=0.833;entryY=0.003;entryDx=0;entryDy=0;entryPerimeter=0;exitDx=0;exitDy=0;exitPerimeter=0;" edge="1" source="JEuaY9wRED9hBMcnVH85-45" parent="1" target="JEuaY9wRED9hBMcnVH85-38">
          <mxGeometry x="1" relative="1" as="geometry">
            <mxPoint x="170" y="110" as="targetPoint" />
          </mxGeometry>
        </mxCell>
        <mxCell id="JEuaY9wRED9hBMcnVH85-48" value="&lt;div&gt;&lt;b&gt;&lt;font style=&quot;font-size: 14px;&quot;&gt;Use recursive function to apply atomic logic to each node&lt;/font&gt;&lt;/b&gt;&lt;/div&gt;&lt;div&gt;&lt;span style=&quot;background-color: initial;&quot;&gt;recrusive(root){&lt;/span&gt;&lt;br&gt;&lt;/div&gt;&lt;div&gt;&lt;span style=&quot;white-space: pre;&quot;&gt;&#x9;&lt;/span&gt;....&lt;br&gt;&lt;/div&gt;&lt;div&gt;&amp;nbsp; &amp;nbsp; &amp;nbsp; &amp;nbsp; recrusive(root-&amp;gt;left);&lt;/div&gt;&lt;div&gt;&amp;nbsp; &amp;nbsp; &amp;nbsp; &amp;nbsp;&amp;nbsp;&lt;span style=&quot;background-color: initial;&quot;&gt;recrusive(root-&amp;gt; right);&lt;/span&gt;&lt;/div&gt;&lt;div&gt;&lt;span style=&quot;background-color: initial;&quot;&gt;&amp;nbsp; &amp;nbsp; &amp;nbsp; &amp;nbsp; ....&lt;/span&gt;&lt;/div&gt;&lt;div&gt;}&lt;/div&gt;" style="shape=note;size=15;align=left;spacingLeft=10;html=1;whiteSpace=wrap;" vertex="1" parent="1">
          <mxGeometry x="500" y="40" width="340" height="130" as="geometry" />
        </mxCell>
        <mxCell id="JEuaY9wRED9hBMcnVH85-49" value="" style="edgeStyle=none;endArrow=none;exitX=0.5;exitY=1;dashed=1;html=1;rounded=0;entryX=0.5;entryY=0;entryDx=0;entryDy=0;exitDx=0;exitDy=0;exitPerimeter=0;" edge="1" parent="1" source="JEuaY9wRED9hBMcnVH85-48" target="JEuaY9wRED9hBMcnVH85-42">
          <mxGeometry x="1" relative="1" as="geometry">
            <mxPoint x="220" y="300" as="targetPoint" />
            <mxPoint x="250" y="210" as="sourcePoint" />
          </mxGeometry>
        </mxCell>
      </root>
    </mxGraphModel>
  </diagram>
</mxfile>
